<svg xmlns="http://www.w3.org/2000/svg" viewBox="0 0 130 40" fill="none">
    <path d="M12 24c4.5-5.5 11.5-6.5 17-2.5 3 2.2 4.5 5 4.5 5s-2.5 2-6.5.5c-3-1.1-6.5-.5-9 2.5-2.2 2.6-2.5 5.5-2.5 5.5s-4-4.5-3.5-11z" fill="#76B900"/>
    <path d="M18 20c3-3.7 7.5-4.3 11-1.6 2 1.4 3 3.3 3 3.3s-1.6 1.3-4.3.3c-2-.7-4.3-.3-6 1.7-1.4 1.7-1.6 3.6-1.6 3.6s-2.6-3-2.1-7.3z" fill="#5A8F00"/>
    <text x="38" y="26" font-family="'Arial Black', Impact, sans-serif" font-weight="900" font-size="17" fill="#76B900" letter-spacing="0.5">NVIDIA</text>
  </svg>